<svg width="20" height="20" viewBox="0 0 20 20" fill="none" xmlns="http://www.w3.org/2000/svg">
<path d="M3.33325 18.333H16.6666" stroke="white" stroke-width="1.5" stroke-linecap="round"/>
<path d="M11.5733 3.05276L12.1912 2.43484C13.215 1.41104 14.8749 1.41104 15.8987 2.43484C16.9225 3.45865 16.9225 5.11856 15.8987 6.14236L15.2808 6.76028M11.5733 3.05276C11.5733 3.05276 11.6505 4.36584 12.8091 5.52444C13.9677 6.68304 15.2808 6.76028 15.2808 6.76028M11.5733 3.05276L5.89247 8.73359C5.50769 9.11837 5.31531 9.31075 5.14985 9.52288C4.95468 9.77311 4.78734 10.0439 4.65081 10.3303C4.53507 10.5732 4.44904 10.8313 4.27696 11.3475L3.54779 13.535M15.2808 6.76028L9.59999 12.4411C9.21521 12.8259 9.02282 13.0183 8.8107 13.1837C8.56046 13.3789 8.28971 13.5462 8.00324 13.6828C7.76038 13.7985 7.50227 13.8845 6.98604 14.0566L4.79853 14.7858M4.79853 14.7858L4.26381 14.964C4.00977 15.0487 3.72969 14.9826 3.54034 14.7932C3.35099 14.6039 3.28487 14.3238 3.36955 14.0698L3.54779 13.535M4.79853 14.7858L3.54779 13.535" stroke="white" stroke-width="1.5"/>
</svg>
