<svg width="32" height="33" viewBox="0 0 32 33" fill="none" xmlns="http://www.w3.org/2000/svg">
<ellipse cx="16.0001" cy="8.50033" rx="5.33333" ry="5.33333" stroke="#321B37" stroke-width="1.5"/>
<path d="M19.9999 18.2691C18.7647 17.9879 17.4145 17.833 15.9999 17.833C10.1089 17.833 5.33325 20.5193 5.33325 23.833C5.33325 27.1467 5.33325 29.833 15.9999 29.833C23.5832 29.833 25.7753 28.4753 26.4089 26.4997" stroke="#321B37" stroke-width="1.5"/>
<path d="M20.2288 25.6045C21.1939 26.5697 22.5273 27.1667 24.0001 27.1667C26.9456 27.1667 29.3334 24.7789 29.3334 21.8333C29.3334 20.3605 28.7364 19.0272 27.7713 18.062M20.2288 25.6045C19.2637 24.6394 18.6667 23.3061 18.6667 21.8333C18.6667 18.8878 21.0546 16.5 24.0001 16.5C25.4728 16.5 26.8061 17.0969 27.7713 18.062M20.2288 25.6045L27.7713 18.062" stroke="#321B37" stroke-width="1.5" stroke-linejoin="round"/>
</svg>
