<svg width="25" height="24" viewBox="0 0 25 24" fill="none" xmlns="http://www.w3.org/2000/svg">
<path d="M2.25 5.25732C2.25 3.45835 3.817 2 5.75 2C7.683 2 9.25 3.45835 9.25 5.25732C9.25 7.04219 8.13292 9.12496 6.39003 9.86978C5.98374 10.0434 5.51626 10.0434 5.10997 9.86978C3.36708 9.12496 2.25 7.04219 2.25 5.25732Z" stroke="#878787"/>
<path d="M15.25 17.2573C15.25 15.4584 16.817 14 18.75 14C20.683 14 22.25 15.4584 22.25 17.2573C22.25 19.0422 21.1329 21.125 19.39 21.8698C18.9837 22.0434 18.5163 22.0434 18.11 21.8698C16.3671 21.125 15.25 19.0422 15.25 17.2573Z" stroke="#878787"/>
<path d="M18.7498 17.5H18.7588" stroke="#878787" stroke-width="1.5" stroke-linecap="round" stroke-linejoin="round"/>
<path d="M5.74072 5.5H5.74972" stroke="#878787" stroke-width="1.5" stroke-linecap="round" stroke-linejoin="round"/>
<path d="M12.25 4.5C11.9738 4.5 11.75 4.72386 11.75 5C11.75 5.27614 11.9738 5.5 12.25 5.5V5V4.5ZM12.25 19L12.6035 19.3536C12.7988 19.1583 12.7988 18.8417 12.6035 18.6464L12.25 19ZM17.4556 8.68732L17.724 9.10915L17.4556 8.68732ZM7.04434 15.3127L7.31278 15.7345H7.31278L7.04434 15.3127ZM11.1035 17.1464C10.9083 16.9512 10.5917 16.9512 10.3964 17.1464C10.2012 17.3417 10.2012 17.6583 10.3964 17.8536L10.75 17.5L11.1035 17.1464ZM10.3964 20.1464C10.2012 20.3417 10.2012 20.6583 10.3964 20.8536C10.5917 21.0488 10.9083 21.0488 11.1035 20.8536L10.75 20.5L10.3964 20.1464ZM16.3819 5V4.5H12.25V5V5.5H16.3819V5ZM12.25 19V18.5H8.11809V19V19.5H12.25V19ZM17.4556 8.68732L17.1872 8.26549L6.77591 14.8908L7.04434 15.3127L7.31278 15.7345L17.724 9.10915L17.4556 8.68732ZM12.25 19L12.6035 18.6464L11.1035 17.1464L10.75 17.5L10.3964 17.8536L11.8964 19.3536L12.25 19ZM12.25 19L11.8964 18.6464L10.3964 20.1464L10.75 20.5L11.1035 20.8536L12.6035 19.3536L12.25 19ZM8.11809 19V18.5C6.61742 18.5 6.04672 16.5402 7.31278 15.7345L7.04434 15.3127L6.77591 14.8908C4.66581 16.2336 5.61696 19.5 8.11809 19.5V19ZM16.3819 5V5.5C17.8825 5.5 18.4532 7.45982 17.1872 8.26549L17.4556 8.68732L17.724 9.10915C19.8341 7.76636 18.883 4.5 16.3819 4.5V5Z" fill="#878787"/>
</svg>
