<svg width="25" height="24" viewBox="0 0 25 24" fill="none" xmlns="http://www.w3.org/2000/svg">
<path d="M9.71173 19.3384L10.0298 18.9526V18.9526L9.71173 19.3384ZM12.75 5.31675L12.3821 5.65538C12.4768 5.75823 12.6102 5.81675 12.75 5.81675C12.8898 5.81675 13.0232 5.75823 13.1179 5.65538L12.75 5.31675ZM15.579 20.1692L15.8788 19.7691L15.579 20.1692ZM17.25 13.1584L16.8987 13.5141C17.0934 13.7065 17.4066 13.7065 17.6013 13.5141L17.25 13.1584ZM18.921 20.1692L18.6212 19.7691L18.921 20.1692ZM9.71173 19.3384L10.0298 18.9526C7.013 16.466 3.25 13.9163 3.25 9.11901H2.75H2.25C2.25 14.491 6.52585 17.3604 9.39371 19.7242L9.71173 19.3384ZM2.75 9.11901H3.25C3.25 6.75155 4.52987 4.76472 6.27817 3.92913C7.98823 3.11182 10.2576 3.34745 12.3821 5.65538L12.75 5.31675L13.1179 4.97811C10.7425 2.39771 8.01194 1.99214 5.84695 3.02689C3.72022 4.04335 2.25 6.40182 2.25 9.11901H2.75ZM9.71173 19.3384L9.39371 19.7242C9.90813 20.1483 10.4446 20.5869 10.9845 20.9168C11.5237 21.2463 12.1173 21.5 12.75 21.5V21V20.5C12.3827 20.5 11.9763 20.3509 11.5059 20.0635C11.0363 19.7765 10.5536 19.3844 10.0298 18.9526L9.71173 19.3384ZM22.75 9.11901H23.25C23.25 6.40182 21.7798 4.04335 19.6531 3.02689C17.4881 1.99214 14.7575 2.39771 12.3821 4.97811L12.75 5.31675L13.1179 5.65538C15.2424 3.34745 17.5118 3.11182 19.2218 3.92913C20.9701 4.76472 22.25 6.75155 22.25 9.11901H22.75ZM11.75 15.0595H12.25C12.25 13.9897 12.886 13.0822 13.7712 12.6976C14.6308 12.3241 15.7914 12.4206 16.8987 13.5141L17.25 13.1584L17.6013 12.8026C16.2337 11.4519 14.6443 11.2279 13.3727 11.7804C12.1265 12.3219 11.25 13.587 11.25 15.0595H11.75ZM15.579 20.1692L15.2791 20.5693C15.5602 20.7799 15.8673 21.0087 16.1796 21.1822C16.4923 21.3559 16.8543 21.5 17.25 21.5V21V20.5C17.0957 20.5 16.9077 20.4427 16.6652 20.308C16.4222 20.173 16.1688 19.9864 15.8788 19.7691L15.579 20.1692ZM18.921 20.1692L19.2209 20.5693C19.9998 19.9857 21.0133 19.3047 21.8077 18.4543C22.6193 17.5856 23.25 16.4953 23.25 15.0595H22.75H22.25C22.25 16.1661 21.7753 17.0242 21.077 17.7717C20.3616 18.5374 19.4606 19.1401 18.6212 19.7691L18.921 20.1692ZM18.921 20.1692L18.6212 19.7691C18.3312 19.9864 18.0778 20.173 17.8348 20.308C17.5923 20.4427 17.4043 20.5 17.25 20.5V21V21.5C17.6457 21.5 18.0077 21.3559 18.3204 21.1822C18.6327 21.0087 18.9398 20.7799 19.2209 20.5693L18.921 20.1692ZM22.75 15.0595H23.25C23.25 14.0919 22.8713 13.2139 22.259 12.5725L21.8974 12.9177L21.5357 13.2629C21.9758 13.724 22.25 14.3568 22.25 15.0595H22.75ZM21.8974 12.9177L22.259 12.5725C21.6334 11.9171 20.7598 11.5049 19.7961 11.5C18.8268 11.4952 17.8108 11.9018 16.8987 12.8026L17.25 13.1584L17.6013 13.5141C18.351 12.7737 19.121 12.4966 19.791 12.5C20.4666 12.5034 21.0857 12.7916 21.5357 13.2629L21.8974 12.9177ZM21.8974 12.9177L22.3484 13.1335C22.9087 11.9625 23.25 10.6387 23.25 9.11901H22.75H22.25C22.25 10.4817 21.9455 11.6586 21.4463 12.7019L21.8974 12.9177ZM15.579 20.1692L15.8788 19.7691C15.7377 19.6634 15.5928 19.557 15.4473 19.4504L15.1518 19.8538L14.8564 20.2572C15.002 20.3638 15.1429 20.4673 15.2791 20.5693L15.579 20.1692ZM15.1518 19.8538L15.4473 19.4504C13.8454 18.2771 12.25 17.0896 12.25 15.0595H11.75H11.25C11.25 17.6786 13.3509 19.1545 14.8564 20.2572L15.1518 19.8538ZM15.1518 19.8538L14.8433 19.4604C14.0207 20.1055 13.3518 20.5 12.75 20.5V21V21.5C13.7366 21.5 14.6561 20.878 15.4604 20.2472L15.1518 19.8538Z" fill="#878787"/>
</svg>
