<svg width="321" height="320" viewBox="0 0 321 320" fill="none" xmlns="http://www.w3.org/2000/svg">
<path fill-rule="evenodd" clip-rule="evenodd" d="M68.0839 183.2C76.6919 184.8 82.7719 181.792 85.9079 181.104C86.8199 180.912 90.8519 182.704 97.2199 182.704C99.0473 182.611 100.838 182.154 102.486 181.36C104.135 180.566 105.608 179.451 106.82 178.08C107.028 177.84 106.644 177.536 106.436 177.776C103.968 180.207 100.652 181.584 97.1879 181.616C93.8198 181.47 90.4801 180.933 87.2359 180.016C85.0439 179.52 85.3799 180.128 79.8279 181.616C76.0356 182.649 72.0736 182.905 68.1799 182.368C63.2519 181.664 62.3239 180.56 62.1159 181.12C62.0947 181.182 62.0977 181.249 62.1245 181.309C62.1512 181.368 62.1997 181.415 62.2599 181.44C64.1414 182.209 66.0915 182.798 68.0839 183.2ZM180.58 161.6C187.636 161.04 193.38 154.816 192.852 151.056C192.862 151.018 192.863 150.979 192.855 150.941C192.847 150.902 192.83 150.867 192.806 150.836C192.782 150.805 192.752 150.78 192.717 150.763C192.681 150.746 192.643 150.737 192.604 150.737C192.565 150.737 192.526 150.746 192.491 150.763C192.456 150.78 192.426 150.805 192.402 150.836C192.378 150.867 192.361 150.902 192.353 150.941C192.345 150.979 192.346 151.018 192.356 151.056C192.1 152.529 191.396 153.886 190.34 154.944C188.137 157.383 185.399 159.278 182.34 160.48C180.468 161.232 180.196 161.024 180.26 161.392C180.263 161.429 180.274 161.465 180.293 161.497C180.312 161.528 180.337 161.555 180.368 161.575C180.399 161.596 180.435 161.608 180.471 161.613C180.508 161.617 180.545 161.613 180.58 161.6ZM44.3879 188.304C44.4495 188.283 44.5 188.238 44.5285 188.18C44.5571 188.121 44.5611 188.054 44.5399 187.992C44.5187 187.931 44.4739 187.88 44.4154 187.852C44.3569 187.823 44.2895 187.819 44.2279 187.84C40.2843 188.694 36.2036 188.694 32.2599 187.84C30.5639 187.408 30.4679 187.056 30.2919 187.376C30.2609 187.432 30.2519 187.498 30.2667 187.56C30.2815 187.622 30.3191 187.676 30.3719 187.712C34.0999 190.4 40.3239 190.288 44.3879 188.304ZM240.084 71.3442C240.612 71.5202 240.084 70.8002 242.724 66.0962C248.084 56.3842 257.716 47.8722 267.492 42.4162C271.444 40.2082 271.78 40.4322 271.62 40.0322C271.589 39.9737 271.538 39.9283 271.476 39.9048C271.414 39.8812 271.346 39.881 271.284 39.9042C254.98 46.3042 243.204 59.5842 239.924 71.0242C239.911 71.0556 239.906 71.0893 239.907 71.123C239.909 71.1567 239.917 71.1898 239.932 71.22C239.947 71.2502 239.969 71.2769 239.995 71.2983C240.021 71.3197 240.051 71.3353 240.084 71.3442ZM287.796 84.0962C280.708 78.7842 269.476 76.2402 260.596 75.1522C254.665 74.3622 248.665 74.2441 242.708 74.8002C242.674 74.8023 242.641 74.8109 242.611 74.8257C242.581 74.8405 242.554 74.8611 242.531 74.8864C242.509 74.9116 242.492 74.9411 242.481 74.973C242.47 75.0049 242.466 75.0386 242.468 75.0722C242.468 75.5042 242.564 75.0722 248.292 75.2962C260.036 75.7122 278.436 78.4962 287.444 84.4962C287.78 84.6722 288.068 84.2722 287.796 84.0962ZM232.5 167.808C231.462 168.33 230.35 168.691 229.204 168.88C229.175 168.867 229.143 168.859 229.11 168.857C229.078 168.856 229.046 168.861 229.015 168.872C228.985 168.883 228.957 168.9 228.933 168.922C228.909 168.944 228.89 168.971 228.876 169C228.862 169.03 228.855 169.061 228.853 169.094C228.852 169.126 228.857 169.159 228.868 169.189C228.879 169.22 228.896 169.247 228.918 169.271C228.94 169.295 228.967 169.315 228.996 169.328C229.314 169.56 229.682 169.714 230.07 169.779C230.459 169.843 230.857 169.816 231.233 169.7C231.609 169.583 231.953 169.38 232.237 169.108C232.52 168.835 232.737 168.499 232.868 168.128C232.91 168.079 232.932 168.016 232.927 167.951C232.923 167.887 232.893 167.827 232.844 167.784C232.795 167.742 232.731 167.72 232.667 167.725C232.602 167.729 232.542 167.759 232.5 167.808ZM35.8759 238.288C32.8519 238.56 33.3799 239.888 36.4039 239.472C39.4279 239.056 37.8119 238.112 35.8759 238.288ZM83.2679 232.336C82.9501 232.361 82.6346 232.409 82.3239 232.48C80.5959 232.96 80.9799 233.552 82.6919 233.584C86.0199 233.6 86.2119 232.112 83.2679 232.336ZM34.2439 272.976C32.9319 272.976 31.2679 273.696 33.4439 274.144C33.9744 274.223 34.5135 274.223 35.0439 274.144C37.2999 273.6 35.4279 272.944 34.2439 272.976ZM80.8199 264.384C78.3399 264.496 79.3319 265.44 80.8199 265.584C83.4119 265.856 84.0519 264.256 80.8199 264.384ZM127.476 287.856C124.276 288.016 126.996 289.296 129.076 289.056C131.156 288.816 130.532 287.696 127.476 287.856ZM176.276 275.472C173.076 275.344 174.212 276.736 176.564 276.72C178.404 276.704 179.028 275.616 176.276 275.472ZM229.508 294.112C227.412 294.112 226.164 294.992 228.516 295.312C229.186 295.384 229.862 295.384 230.532 295.312C232.964 294.832 231.38 294.08 229.508 294.112ZM268.084 253.984C271.572 254.272 271.652 252.96 268.084 252.752C264.228 252.512 265.508 253.776 268.084 253.984ZM292.18 246.496C291.188 246.656 290.58 247.216 291.876 247.584C292.511 247.744 293.177 247.744 293.812 247.584C295.732 246.816 293.668 246.256 292.18 246.496ZM70.0519 82.5122C72.2536 82.5081 74.4328 82.0687 76.4641 81.2194C78.4954 80.37 80.3388 79.1275 81.8882 77.5632C83.4376 75.9989 84.6625 74.1438 85.4924 72.1045C86.3223 70.0651 86.7408 67.8819 86.7239 65.6802C86.5897 61.3458 84.7735 57.2339 81.66 54.2154C78.5466 51.1969 74.3804 49.5089 70.0439 49.5089C65.7075 49.5089 61.5413 51.1969 58.4278 54.2154C55.3144 57.2339 53.4982 61.3458 53.3639 65.6802C53.347 67.8832 53.7661 70.0678 54.597 72.1082C55.4279 74.1485 56.6542 76.0044 58.2053 77.5689C59.7564 79.1334 61.6016 80.3756 63.6348 81.224C65.668 82.0723 67.8489 82.5102 70.0519 82.5122ZM58.9319 54.5282C60.3555 53.0041 62.0772 51.7888 63.9901 50.958C65.903 50.1271 67.9664 49.6984 70.0519 49.6984C72.1375 49.6984 74.2008 50.1271 76.1137 50.958C78.0267 51.7888 79.7484 53.0041 81.1719 54.5282C84.0534 57.5079 85.6535 61.4974 85.6296 65.6423C85.6057 69.7873 83.9596 73.758 81.0439 76.7042C79.6043 78.1545 77.8918 79.3056 76.0053 80.0911C74.1188 80.8766 72.0955 81.281 70.0519 81.281C68.0084 81.281 65.9851 80.8766 64.0985 80.0911C62.212 79.3056 60.4996 78.1545 59.0599 76.7042C56.1442 73.758 54.4982 69.7873 54.4742 65.6423C54.4503 61.4974 56.0504 57.5079 58.9319 54.5282ZM240.324 72.4482L240.308 72.4162V72.4322L240.324 72.4482ZM199.236 98.7202C199.236 98.7202 203.348 95.8562 203.684 95.6002C205.428 94.2562 207.572 92.9122 209.284 91.8082C213.844 88.8802 213.668 88.6082 219.764 85.2322C221.524 84.2402 236.388 76.1922 237.684 75.4242C237.735 75.3882 237.771 75.3348 237.786 75.2739C237.8 75.2131 237.792 75.1491 237.762 75.094C237.733 75.0388 237.684 74.9964 237.625 74.9747C237.567 74.9531 237.502 74.9536 237.444 74.9762C231.572 78.0002 220.148 82.8482 211.652 88.8002C208.719 90.7051 205.884 92.7557 203.156 94.9442C201.628 96.0842 200.159 97.3018 198.756 98.5922C198.755 98.6493 198.773 98.7051 198.808 98.7507C198.842 98.7962 198.891 98.829 198.946 98.8437C199.001 98.8584 199.06 98.8543 199.112 98.8319C199.165 98.8095 199.208 98.7702 199.236 98.7202ZM177.396 190.768C178.426 191.317 179.573 191.613 180.74 191.632C181.252 191.632 181.588 191.264 181.7 190.512C181.812 189.754 181.812 188.983 181.7 188.224C181.156 184.608 180.1 185.488 180.34 185.872C179.316 186.144 175.892 189.984 177.396 190.768ZM180.436 186.432C180.454 186.44 180.473 186.444 180.492 186.444C180.511 186.444 180.53 186.44 180.548 186.432C180.679 187.757 180.679 189.091 180.548 190.416C179.78 190.295 179.028 190.085 178.308 189.792C178.855 188.577 179.571 187.446 180.436 186.432Z" fill="#321B37"/>
<path fill-rule="evenodd" clip-rule="evenodd" d="M265.108 91.1999L268.836 87.4719L270.676 92.5439C270.804 92.8959 269.492 92.2879 288.772 100.272C289.076 100.4 288.884 100.4 293.572 98.6719C294.212 104.128 294.148 104.032 294.356 104.256C295.636 105.616 305.716 116.32 307.156 117.552C309.892 119.968 315.876 102.912 310.132 93.8399C298.484 75.5199 283.7 70.0319 262.292 68.4799C258.068 68.1919 248.66 69.8719 244.484 70.6719C253.86 65.3439 253.444 65.7919 253.412 65.3919L253.108 61.1519L257.076 61.6639C257.332 61.6639 255.684 62.7839 282.5 44.8799C282.884 44.6239 282.788 44.8799 282.788 39.8399C286.532 39.1359 286.996 39.0719 287.156 39.0079C288.564 38.4159 299.62 33.8719 300.852 32.9759C301.003 32.8856 301.114 32.7407 301.162 32.571C301.209 32.4013 301.19 32.2198 301.108 32.0639C296.708 24.3199 290.132 23.8399 281.492 25.3759C265.236 28.2399 254.644 38.7039 244.324 51.4559C241.18 55.6591 239.234 60.6353 238.692 65.8559C232.436 55.3279 221.716 51.5679 210.66 47.0879C194.388 40.5119 158.132 40.1119 143.156 50.6079C136.127 55.3823 130.477 61.9209 126.772 69.5679C126.644 69.8239 126.612 70.3839 127.364 70.5919C130.036 71.3279 153.988 70.5919 156.772 70.5919C157.156 70.5919 157.172 70.3199 160.436 67.8719C160.66 68.7199 160.932 69.9839 161.076 70.7519C161.106 70.8929 161.185 71.0186 161.3 71.1066C161.414 71.1945 161.556 71.2389 161.7 71.2319C186.66 70.2239 185.14 70.3679 185.38 70.1119C185.38 70.1119 188.02 67.1199 189.22 65.9359C189.373 66.3818 189.501 66.8358 189.604 67.2959C190.292 70.3199 189.94 70.7519 190.5 70.9279C195.524 72.5279 206.212 75.7279 211.524 76.9759C195.748 81.9999 186.34 87.5199 176.66 101.248C173.139 106.612 170.392 112.445 168.5 118.576C167.326 118.46 166.147 118.729 165.14 119.344C164.452 119.808 164.692 120.944 164.948 121.728C162.98 121.344 161.908 122.256 162.564 124.256C163.092 125.856 164.772 128.08 164.772 129.216C164.66 129.056 164.388 128.608 164.324 128.528C162.706 127.29 160.692 126.686 158.66 126.832C156.676 126.832 155.06 128.848 153.748 129.792C155.012 125.824 152.724 123.52 147.028 128.88C147.154 128.519 147.192 128.134 147.139 127.755C147.087 127.377 146.944 127.016 146.724 126.704C145.124 125.104 141.284 128.656 139.732 129.584C139.732 128.928 140.228 127.552 138.788 126.832C136.468 125.664 134.82 128.032 133.396 130.032C132.852 127.808 130.036 127.312 127.908 128.16C126.66 128.786 125.687 129.851 125.176 131.15C124.665 132.449 124.652 133.892 125.14 135.2C122.756 133.952 119.924 133.136 119.812 135.824C119.807 136.509 119.887 137.191 120.052 137.856C118.932 137.152 117.204 136.256 116.02 136.848C113.78 137.984 114.42 140.272 115.7 142.416C101.7 142.416 17.3478 144.016 10.0998 144.416C9.96629 144.447 9.84723 144.523 9.762 144.63C9.67678 144.738 9.6304 144.871 9.6304 145.008C9.6304 145.145 9.67678 145.278 9.762 145.386C9.84723 145.493 9.96629 145.569 10.0998 145.6C80.1158 144.736 206.356 144 207.012 144.368C218.212 152.144 197.572 172.768 183.268 175.936C178.78 172.743 174.122 169.795 169.316 167.104C168.916 166.896 168.836 167.568 168.772 168.016C168.708 168.464 168.644 168.944 168.58 169.616C164.46 165.318 159.577 161.824 154.18 159.312C143.524 154.8 136.58 158.432 130.58 168.096C128.003 172.519 125.86 177.181 124.18 182.016C122.731 186.28 121.502 190.617 120.5 195.008C117.924 195.529 115.28 195.615 112.676 195.264C106.692 194.512 98.0198 192.24 96.2438 192.832C92.8198 193.984 89.9878 196.8 86.4358 197.984C80.7528 199.948 74.7292 200.734 68.7323 200.294C62.7355 199.854 56.8912 198.197 51.5558 195.424C49.9558 194.656 39.7798 197.856 37.4758 198.336C31.7798 199.488 17.2678 195.904 8.94784 189.696C8.89457 189.67 8.83387 189.663 8.77613 189.677C8.71839 189.69 8.66719 189.724 8.63128 189.771C8.59538 189.818 8.577 189.876 8.57929 189.936C8.58158 189.995 8.6044 190.052 8.64384 190.096C17.0918 196.496 31.7158 200.176 37.6198 199.024C39.0598 198.736 50.0998 195.584 51.1878 196.128C56.6153 198.986 62.5683 200.709 68.6836 201.19C74.7988 201.671 80.9479 200.902 86.7558 198.928C90.4678 197.696 93.1558 194.944 96.5798 193.824C97.9398 193.376 106.916 195.632 112.58 196.352C115.137 196.723 117.738 196.663 120.276 196.176C119.572 199.232 117.236 209.904 117.076 212C117.057 212.109 117.061 212.222 117.089 212.329C117.116 212.437 117.166 212.537 117.236 212.624C117.508 212.88 118.02 212.896 121.412 212.96C120.548 218.24 120.628 217.84 120.244 218.32C118.542 220.073 116.719 221.703 114.788 223.2C113.588 224.192 112.052 225.904 112.74 227.312C113.156 228.128 114.196 228.176 115.108 228.096C115.108 228.528 115.108 229.36 115.524 229.472C116.228 229.632 123.14 229.568 124.324 229.552L125.556 231.152C123.78 234.032 111.908 253.696 112.196 257.04C112.292 258.032 114.228 258.56 115.284 258.848C115.076 259.392 114.868 259.936 114.676 260.352C114.484 260.768 114.516 260.784 114.436 260.912C114.356 261.04 108.324 262.512 105.588 264.496C103.796 265.776 103.988 267.152 104.948 267.696C107.572 269.216 122.004 268.896 122.804 268.048C123.86 266.928 124.676 262.176 124.948 260.64C126.073 260.854 127.231 260.816 128.34 260.528C133.617 256.243 138.52 251.517 142.996 246.4C144.852 247.536 146.82 248.624 148.9 249.6C147.3 251.408 130.164 270.512 129.988 271.904C129.748 273.648 134.788 275.584 136.276 274.672C136.724 274.384 137.876 273.072 155.844 252.448C159.186 253.58 162.624 254.404 166.116 254.912C171.644 255.707 177.219 256.124 182.804 256.16C189.108 259.616 196.724 263.76 201.588 266.384C182.548 289.936 183.46 288.704 183.46 289.152C183.46 290 184.724 290.864 185.444 291.312C186.164 291.76 187.54 292.432 188.292 292.032C189.396 291.424 206.452 270.48 207.3 269.44C216.42 274.24 224.164 278.304 226.212 279.312C226.868 279.648 227.412 278.992 227.812 278.368C228.301 277.563 228.718 276.717 229.06 275.84C229.106 275.705 229.103 275.558 229.054 275.424C229.004 275.29 228.911 275.177 228.788 275.104L210.852 265.104L221.844 251.696L275.7 281.6C275.833 281.657 275.979 281.674 276.122 281.648C276.264 281.623 276.395 281.556 276.5 281.456C277.492 280.143 278.31 278.707 278.932 277.184C279.124 276.592 278.804 276.384 278.404 276.128C278.324 276.128 246.5 258.176 225.972 246.656L237.348 232.736C240.098 232.851 242.84 232.367 245.385 231.317C247.929 230.267 250.215 228.677 252.084 226.656C252.244 228.512 252.356 229.984 252.436 231.008C252.45 231.063 252.482 231.112 252.527 231.147C252.572 231.182 252.627 231.2 252.684 231.2C252.741 231.2 252.796 231.182 252.841 231.147C252.886 231.112 252.918 231.063 252.932 231.008C252.836 229.408 252.724 227.808 252.612 226.112C256.788 221.312 258.468 214.192 258.532 207.808C260.211 207.494 261.868 207.072 263.492 206.544C263.555 206.544 263.617 206.519 263.662 206.474C263.707 206.429 263.732 206.368 263.732 206.304C263.732 206.24 263.707 206.179 263.662 206.134C263.617 206.089 263.555 206.064 263.492 206.064C261.935 206.084 260.383 206.234 258.852 206.512C265.476 198.4 276.996 184.112 278.948 181.616C283.748 209.648 284.068 230.912 284.676 232.816C284.676 233.152 285.156 233.408 285.156 232.608C285.163 232.566 285.163 232.522 285.156 232.48C284.372 224.288 283.828 205.52 279.764 180.592C293.956 162.72 293.332 163.216 293.012 162.704C292.372 161.728 289.812 160.88 288.02 160.816C287.844 160.816 288.164 160.48 283.988 165.616C282.276 165.168 279.748 164.656 276.724 164.112C275.412 157.712 273.94 151.424 272.244 144.912C307.588 145.744 305.684 145.888 305.956 145.44L307.7 145.6C307.738 145.61 307.777 145.611 307.815 145.603C307.854 145.595 307.889 145.578 307.92 145.554C307.951 145.53 307.976 145.5 307.993 145.465C308.01 145.429 308.019 145.391 308.019 145.352C308.019 145.313 308.01 145.274 307.993 145.239C307.976 145.204 307.951 145.174 307.92 145.15C307.889 145.126 307.854 145.109 307.815 145.101C307.777 145.093 307.738 145.094 307.7 145.104L305.94 144.944C306.02 142.624 305.684 140.288 303.492 139.488C304.852 138.816 307.076 137.888 306.164 136.176C305.252 134.464 302.964 136.288 302.052 136.176C301.892 135.12 303.652 131.712 300.452 130.912C299.282 130.904 298.112 130.957 296.948 131.072C297.54 130 298.708 128.096 298.548 126.928C298.404 126.176 297.764 125.584 296.02 126.016C295.668 126.112 294.42 126.608 293.54 126.832C293.718 126.571 293.868 126.292 293.988 126C294.292 124.55 294.028 123.038 293.252 121.776C291.396 119.008 288.692 121.136 286.436 122.176C286.857 121.445 287.088 120.619 287.108 119.776C287.028 118.272 285.332 117.92 283.908 118.336C282.732 118.779 281.592 119.314 280.5 119.936C280.966 119.281 281.169 118.475 281.069 117.678C280.968 116.88 280.57 116.15 279.956 115.632C278.98 114.992 276.516 115.632 275.396 116.064C276.996 113.216 276.42 110.768 275.108 109.456C273.796 108.144 270.772 109.296 269.428 109.168C269.766 108.7 270.061 108.202 270.308 107.68C270.612 106.25 270.348 104.759 269.572 103.52C269.402 103.252 269.165 103.034 268.884 102.888C268.603 102.742 268.288 102.673 267.972 102.688C266.372 102.688 263.636 104.8 263.172 104.288C262.708 103.776 263.172 101.952 261.572 101.088C259.972 100.224 258.1 100.8 258.1 103.568C255.364 97.1679 252.708 91.8239 250.324 87.4079C265.94 91.7279 264.82 91.5199 265.108 91.1999ZM122.1 267.2C120.308 267.616 107.156 267.696 105.412 266.528C104.804 265.056 113.604 262.208 114.724 261.616C115.188 261.36 115.636 259.776 115.876 258.96C118.659 259.68 121.486 260.215 124.34 260.56C123.972 261.712 122.836 266.272 122.1 267.2ZM245.012 51.9999C255.332 39.5839 265.94 29.2959 281.7 26.5599C289.54 25.1999 295.604 25.3759 299.748 32.1919C297.62 33.3439 288.996 36.9919 286.756 37.8559L282.084 38.7519C281.947 38.7806 281.823 38.8546 281.733 38.962C281.643 39.0694 281.592 39.2039 281.588 39.3439V44.0639L257.012 60.7999C252.42 60.2719 252.564 60.2239 252.356 60.4159C252.148 60.6079 252.196 60.4159 252.612 65.2159C251.524 65.8559 246.468 68.7839 242.724 71.0079C238.676 71.8079 239.604 71.7119 238.868 71.6319C238.9 64.8479 240.66 57.2319 245.012 51.9999ZM191.124 69.9999C190.952 68.2165 190.549 66.463 189.924 64.7839C189.886 64.7098 189.832 64.6452 189.765 64.5953C189.699 64.5453 189.622 64.5114 189.54 64.4959C189.172 64.4959 188.884 64.7359 188.58 65.0239C187.556 65.9999 185.38 68.4639 184.708 69.1359L162.148 69.9679C162.004 69.2479 161.604 67.3759 161.364 66.6719C161.336 66.584 161.289 66.5036 161.225 66.4367C161.162 66.3698 161.084 66.3183 160.998 66.2859C160.911 66.2535 160.819 66.2412 160.727 66.2499C160.635 66.2585 160.547 66.288 160.468 66.3359C159.972 66.5919 156.98 68.9759 156.532 69.3279C152.388 69.4559 132.292 69.9839 128.196 69.4879C131.819 62.3094 137.203 56.1661 143.844 51.6319C158.228 41.5999 194.1 41.5999 210.292 47.9999C221.62 52.4799 232.356 56.0959 238.58 66.8959C238.407 68.4526 238.322 70.0177 238.324 71.5839C236.804 71.4719 237.86 71.8239 235.3 70.0959C220.9 60.3839 188.196 50.2079 171.652 55.1039C171.589 55.1226 171.536 55.1645 171.503 55.221C171.471 55.2775 171.461 55.3444 171.476 55.4079C171.732 56.3199 176.932 52.3839 197.908 56.8799C209.956 59.4399 226.116 65.0079 235.876 71.4719C228.436 71.3599 222.852 73.4079 213.044 76.4319C208.164 75.3439 195.86 71.5039 191.124 69.9999ZM177.62 101.872C188.34 86.5279 198.9 81.5999 216.932 76.1279C222.516 74.4159 228.66 72.0959 234.532 72.0639C236.403 71.983 238.278 72.0794 240.132 72.3519C240.132 72.3519 240.42 72.3519 240.372 72.4479C240.619 74.9327 240.205 77.4385 239.172 79.7119C237.751 83.2087 235.821 86.4761 233.444 89.4079C227.22 97.4079 224.596 100.416 215.956 105.952C215.044 105.76 211.636 104.8 210.772 104.544C210.693 104.522 210.611 104.518 210.531 104.533C210.451 104.547 210.375 104.579 210.309 104.627C210.243 104.675 210.188 104.736 210.149 104.808C210.111 104.879 210.088 104.959 210.084 105.04L209.62 112C203.748 114.384 192.292 119.488 187.588 123.68C185.988 119.92 185.812 117.872 184.852 117.872C184.244 117.872 184.244 117.968 182.372 125.584C179.956 126.72 169.844 131.424 167.188 131.808C166.372 129.376 170.1 112.544 177.62 101.872ZM238.004 98.3839C236.404 97.6159 233.956 98.8959 232.5 99.7759C233.14 98.6399 234.1 96.7519 232.852 96.1599C231.367 95.7847 229.794 96.0028 228.468 96.7679C230.148 94.8319 231.86 92.6399 233.988 89.8559C235.771 87.5552 237.316 85.0784 238.596 82.4639C238.9 85.9999 239.492 92.5279 240.276 100.96C239.461 100.983 238.662 101.191 237.94 101.568C238.42 100.8 239.636 99.1999 238.004 98.3839ZM116.948 142.4C115.812 140.8 114.708 138.672 116.452 137.792C116.99 137.645 117.564 137.714 118.052 137.984C118.962 138.412 119.816 138.95 120.596 139.584C120.686 139.651 120.795 139.688 120.908 139.689C121.021 139.689 121.13 139.654 121.222 139.588C121.313 139.522 121.38 139.428 121.415 139.321C121.449 139.214 121.448 139.099 121.412 138.992C120.988 137.891 120.803 136.713 120.868 135.536C120.868 135.376 120.868 135.248 121.076 135.2C121.662 135.081 122.27 135.143 122.82 135.376C123.778 135.716 124.696 136.161 125.556 136.704C125.639 136.752 125.732 136.777 125.828 136.777C125.923 136.777 126.017 136.752 126.1 136.704C126.916 136.176 125.204 134.24 126.1 131.568C126.259 131.029 126.535 130.531 126.908 130.111C127.282 129.69 127.743 129.358 128.26 129.136C130.068 128.416 132.484 128.816 132.5 130.912V131.36C132.498 131.457 132.526 131.553 132.579 131.634C132.633 131.715 132.71 131.778 132.8 131.815C132.89 131.851 132.989 131.859 133.084 131.838C133.179 131.817 133.266 131.767 133.332 131.696C134.532 130.496 136.212 126.704 138.356 127.76C139.012 128.096 138.82 128.656 138.772 129.36C138.724 130.064 138.98 130.832 139.62 130.752C140.644 130.624 146.74 124.768 146.164 128.496C146.034 129.192 145.819 129.869 145.524 130.512C145.489 130.61 145.488 130.716 145.521 130.814C145.554 130.913 145.619 130.997 145.706 131.054C145.792 131.111 145.895 131.138 145.999 131.129C146.102 131.121 146.2 131.078 146.276 131.008C147.604 129.52 151.668 125.68 152.98 126.992C153.38 127.392 153.076 129.088 152.884 129.664C152.766 129.865 152.627 130.053 152.468 130.224C152.18 130.656 152.324 131.136 152.852 131.136C154.628 131.136 156.484 127.776 158.644 127.776C160.451 127.647 162.246 128.156 163.716 129.216C163.876 129.376 164.548 130.976 165.188 130.32C166.388 129.136 164.548 126.768 163.588 124.928C163.252 124.256 162.692 122.96 163.396 122.656C163.998 122.489 164.638 122.523 165.22 122.752C165.508 123.344 166.02 124.352 166.564 123.872C167.108 123.392 166.948 122.688 165.796 122.144C165.642 121.776 165.519 121.396 165.428 121.008C165.428 120.784 165.3 120.208 165.428 120.08C166.236 119.593 167.174 119.364 168.116 119.424C167.396 121.696 164.628 131.136 166.292 132.816C166.514 133.003 166.802 133.095 167.092 133.072C169.46 132.96 180.932 127.6 183.092 126.672C183.54 126.464 183.284 126.56 184.916 120.272C186.404 124.176 186.612 125.28 187.364 125.296C188.116 125.312 187.732 124.064 196.292 119.488C202.884 115.968 210.308 112.96 210.308 112.96C210.408 112.922 210.495 112.857 210.56 112.772C210.625 112.687 210.665 112.586 210.676 112.48L211.012 105.888C215.812 107.184 215.972 107.232 216.244 107.056C220.253 104.583 223.935 101.615 227.204 98.2239C228.804 97.3279 231.284 96.2719 232.5 96.8799C233.316 97.2959 231.652 100.08 231.028 100.848C230.99 100.915 230.975 100.993 230.985 101.069C230.995 101.145 231.03 101.216 231.085 101.271C231.139 101.325 231.21 101.36 231.287 101.371C231.363 101.381 231.441 101.366 231.508 101.328C232.292 100.752 235.988 98.3199 237.62 99.1359C239.252 99.9519 235.94 102.096 236.948 102.768C237.252 102.96 237.636 102.688 237.972 102.464C238.669 102.047 239.464 101.82 240.276 101.808C241.204 111.568 242.356 123.776 243.588 136.784C240.891 137.455 238.415 138.817 236.404 140.736C233.838 140.504 231.254 140.91 228.884 141.92C228.052 142.272 228.244 143.056 229.076 143.04C228.884 143.04 229.556 143.04 230.676 143.328C231.092 143.2 142.58 142.48 116.948 142.4ZM239.076 176.16C239.076 176.16 239.604 176.432 240.292 176.832C237.412 178.752 231.076 182.192 230.484 183.36C230.411 183.528 230.396 183.715 230.443 183.892C230.489 184.069 230.594 184.225 230.74 184.336C231.14 184.784 231.044 184.448 230.98 185.072V187.84C230.82 189.274 230.52 190.689 230.084 192.064C229.353 192.24 228.585 192.178 227.892 191.888C223.972 190.176 221.732 187.312 222.148 183.024C224.132 183.312 225.268 183.648 225.652 183.68C226.036 183.712 227.076 183.008 225.86 182.544C225.124 182.272 225.156 173.488 226.1 173.904C226.158 173.915 226.218 173.906 226.27 173.879C226.323 173.851 226.364 173.805 226.386 173.751C226.409 173.696 226.412 173.635 226.395 173.578C226.377 173.522 226.341 173.473 226.292 173.44C227.892 171.008 227.892 171.056 227.892 170.72C227.87 170.638 227.829 170.563 227.774 170.499C227.719 170.436 227.649 170.385 227.572 170.352C226.965 170.025 226.454 169.546 226.087 168.963C225.719 168.38 225.509 167.712 225.476 167.024C225.399 165.987 225.518 164.945 225.828 163.952C226.439 164.237 227.109 164.372 227.783 164.344C228.457 164.316 229.114 164.127 229.7 163.792C229.364 164.48 228.996 165.296 229.476 165.872C229.848 166.256 230.337 166.507 230.867 166.585C231.396 166.663 231.936 166.564 232.404 166.304C232.433 166.292 232.46 166.275 232.483 166.253C232.506 166.231 232.524 166.205 232.536 166.176C232.549 166.147 232.556 166.116 232.556 166.084C232.557 166.053 232.551 166.021 232.54 165.992C232.528 165.963 232.511 165.936 232.489 165.913C232.467 165.89 232.441 165.872 232.412 165.859C232.383 165.847 232.352 165.84 232.32 165.839C232.289 165.839 232.257 165.844 232.228 165.856C231.581 165.881 230.948 165.664 230.452 165.248C230.897 164.139 231.432 163.069 232.052 162.048C233.764 162.896 233.652 162.048 233.46 162.912C232.996 166.912 237.556 168.192 240.324 165.536C240.783 165.053 241.18 164.516 241.508 163.936C241.967 164.03 242.442 163.996 242.884 163.84C243.764 164.4 243.652 164.08 243.604 164.56C243.572 164.787 243.6 165.018 243.684 165.231C243.768 165.444 243.906 165.632 244.084 165.776C244.117 165.961 244.117 166.151 244.084 166.336C241.716 167.664 241.86 166.88 241.46 168.08C240.612 168.528 240.644 169.44 240.436 170.256C240.34 170.624 239.316 174.256 238.916 175.568C238.883 175.669 238.881 175.777 238.91 175.88C238.938 175.982 238.996 176.074 239.076 176.144V176.16ZM231.668 185.216C232.552 185.864 233.176 186.805 233.428 187.872C233.652 188.992 233.428 189.264 233.652 189.648C233.73 189.768 233.841 189.862 233.972 189.92C233.074 190.69 232.065 191.321 230.98 191.792C231.313 190.526 231.553 189.237 231.7 187.936C231.764 187.36 231.62 186.16 231.668 185.2V185.216ZM231.668 183.616C233.46 182.016 240.74 177.52 241.636 176.304C242.772 176.992 244.484 178.048 245.556 178.816C242.356 181.376 238.212 184.672 234.628 188.016C234.404 185.808 233.22 185.088 231.732 183.664L231.668 183.616ZM197.732 215.2C202.502 214.983 207.256 214.496 211.972 213.744C214.068 217.441 216.669 220.828 219.7 223.808C222.862 226.723 226.456 229.13 230.356 230.944C228.004 235.104 224.132 240.688 220.18 243.392L209.396 237.36C208.292 233.632 207.892 230.336 206.692 226.736C205.99 224.268 204.603 222.049 202.692 220.336C201.3 218.864 197.892 215.536 197.668 215.232C197.444 214.928 197.652 215.28 197.732 215.2ZM211.604 212.592C208.18 213.104 198.964 214.192 195.796 213.92C196.429 207.814 196.669 201.673 196.516 195.536C198.916 197.6 202.164 200.336 205.284 203.088C203.946 203.502 202.785 204.352 201.988 205.504C201.888 205.706 201.835 205.928 201.835 206.153C201.834 206.379 201.885 206.601 201.984 206.804C202.083 207.006 202.227 207.184 202.405 207.322C202.584 207.46 202.791 207.555 203.012 207.6C203.24 207.633 203.472 207.633 203.7 207.6C203.631 207.828 203.614 208.068 203.65 208.303C203.686 208.539 203.774 208.763 203.908 208.96C204.143 209.328 204.483 209.618 204.884 209.792C205.058 209.824 205.237 209.824 205.412 209.792C205.373 209.949 205.373 210.114 205.412 210.272C205.732 212.896 208.308 211.504 210.772 210.624C211.988 210.208 211.972 210.272 212.724 210.88L211.604 212.592ZM224.532 182.192C222.749 181.737 220.916 181.512 219.076 181.52C218.34 181.52 218.42 181.696 218.452 181.52C218.724 179.408 219.796 173.52 221.236 171.92L225.556 173.52C224.5 174.816 224.036 180 224.5 182.256L224.532 182.192ZM224.532 172.592C224.02 172.336 221.748 171.232 221.332 170.992C220.916 170.752 220.74 170.992 220.404 171.424L219.876 171.328L224.292 166.432C224.261 167.248 224.415 168.06 224.742 168.808C225.069 169.556 225.56 170.22 226.18 170.752L224.532 172.592ZM219.876 172.048C218.872 173.847 218.169 175.798 217.796 177.824C217.426 179.404 217.17 181.008 217.028 182.624C217.023 182.706 217.036 182.789 217.065 182.866C217.093 182.944 217.137 183.015 217.194 183.075C217.251 183.135 217.32 183.182 217.396 183.215C217.471 183.247 217.553 183.264 217.636 183.264C218.619 182.748 219.756 182.606 220.836 182.864C220.646 184.495 220.877 186.148 221.508 187.664C216.493 192.777 211.211 197.621 205.684 202.176L196.42 194.672C196.42 192.784 196.42 191.056 196.292 189.664C196.148 186.048 196.052 186.016 195.604 185.504C194.366 184.257 193.034 183.106 191.62 182.064C199.572 177.312 210.5 170.768 219.956 172.08L219.876 172.048ZM211.796 209.6C210.724 209.6 208.164 210.832 206.804 210.8C206.516 210.8 206.436 210.448 206.42 210.16C207.428 208.944 210.148 208.56 210.148 207.584C210.148 207.584 209.876 206.8 209.268 207.072C207.972 207.718 206.623 208.254 205.236 208.672C205.115 208.573 205.012 208.454 204.932 208.32C204.804 208.08 204.932 208.032 204.932 207.968C206.129 207.153 207.439 206.517 208.82 206.08C208.951 206.007 209.052 205.888 209.103 205.746C209.154 205.605 209.152 205.449 209.097 205.309C209.043 205.169 208.939 205.053 208.806 204.983C208.672 204.913 208.518 204.893 208.372 204.928C206.612 205.52 206.548 205.744 205.172 206.144C204.74 206.256 203.22 206.704 203.028 206.304C202.836 205.904 203.892 205.104 204.34 204.848C206.12 203.837 208.105 203.241 210.148 203.104C211.94 203.104 212.116 203.216 215.86 205.872L213.028 210.352C212.701 209.984 212.272 209.722 211.796 209.6ZM212.452 202.512C210.76 201.978 208.944 201.978 207.252 202.512C212.44 198.157 217.361 193.492 221.988 188.544C223.241 190.592 225.137 192.167 227.38 193.024C228.065 193.32 228.811 193.446 229.556 193.392C227.172 198.608 220.212 201.52 218.596 204.096L217.94 203.696C217.812 203.617 217.658 203.592 217.512 203.625C217.366 203.658 217.238 203.746 217.156 203.872L216.228 205.344C214.804 204.192 213.044 202.848 212.452 202.528V202.512ZM241.252 157.328C241.252 157.872 240.82 158.224 240.836 158.928C240.833 159.193 240.883 159.456 240.985 159.701C241.087 159.946 241.238 160.167 241.428 160.352C241.662 160.536 241.914 160.697 242.18 160.832C242.302 160.874 242.412 160.946 242.5 161.04C242.282 161.552 242.131 162.089 242.052 162.64H241.924C242.196 161.792 242.036 161.04 241.492 160.784C239.386 159.82 237.061 159.433 234.756 159.664C234.34 159.664 233.828 160.992 233.684 161.44C233.186 161.135 232.647 160.903 232.084 160.752C232.372 159.984 232.26 159.344 231.78 159.024C230.596 158.326 229.275 157.895 227.908 157.76L228.244 156.896C228.645 156.723 228.985 156.433 229.22 156.064C229.588 155.568 230.228 154.32 230.436 154.464C230.916 154.608 231.46 155.52 232.692 154.56C233.115 154.16 233.506 153.726 233.86 153.264C234.344 153.576 234.846 153.86 235.364 154.112C236.372 154.336 237.092 153.392 237.508 153.248C237.716 153.504 238.068 153.984 238.164 154.08C238.427 154.274 238.731 154.405 239.053 154.463C239.375 154.521 239.705 154.505 240.02 154.416C239.7 155.984 240.5 156.24 241.236 157.344L241.252 157.328ZM243.924 146.32C240.815 144.997 237.605 143.927 234.324 143.12C233.668 142.976 229.14 142.464 228.98 142.432L229.172 142.32C231.836 141.28 234.753 141.068 237.54 141.712C243.38 143.312 253.06 147.824 256.42 152.912C257.607 154.519 258.561 156.286 259.252 158.16C257.698 156.857 256.243 155.44 254.9 153.92C251.835 150.618 248.083 148.029 243.908 146.336L243.924 146.32ZM256.34 148.304C256.34 149.024 256.164 149.728 256.084 150.432C252.036 145.968 242.372 141.68 237.204 140.704C242.852 136.224 249.156 136.56 252.868 139.568C254.092 140.652 255.044 142.009 255.644 143.53C256.245 145.051 256.478 146.692 256.324 148.32L256.34 148.304ZM208.692 144.16C232.548 144.16 230.404 144.16 230.228 144.32H229.46C228.551 144.517 227.734 145.012 227.14 145.728C226.292 147.04 226.532 146.992 226.612 148.08C226.307 148.36 226.039 148.677 225.812 149.024C225.537 149.438 225.382 149.921 225.365 150.418C225.348 150.915 225.47 151.408 225.716 151.84C225.572 152.192 225.268 152.544 225.14 152.928C225.064 153.118 225.044 153.325 225.081 153.526C225.117 153.727 225.21 153.913 225.348 154.064C225.459 154.153 225.576 154.233 225.7 154.304C225.757 154.328 225.807 154.367 225.844 154.416C225.764 154.736 225.556 154.976 225.492 155.296C225.468 155.525 225.505 155.755 225.597 155.966C225.69 156.176 225.836 156.359 226.02 156.496C226.37 156.756 226.745 156.981 227.14 157.168L226.948 157.68H225.78C225.46 157.68 224.996 158.48 224.852 158.768C224.409 159.431 224.172 160.21 224.172 161.008C224.172 161.805 224.409 162.585 224.852 163.248C224.602 163.959 224.425 164.693 224.324 165.44L218.932 171.328C214.353 171.146 209.787 171.942 205.54 173.664C200.353 175.764 195.372 178.341 190.66 181.36C188.724 179.888 186.484 178.256 184.532 176.896C198.676 173.056 218.884 153.264 208.692 144.16ZM169.3 167.664C174.548 170.464 191.972 183.056 194.74 186.176C195.044 186.544 195.076 186.176 195.204 189.728C195.396 195.264 195.444 208.048 194.612 213.472C194.148 213.104 169.7 193.888 168.292 192.864C168.196 190.4 168.82 170.288 169.3 167.664ZM113.94 226.864C113.828 226.864 113.748 226.864 113.7 226.768C113.652 226.672 113.7 226.128 113.924 225.792C114.82 224.192 116.868 223.12 119.716 220.272C120.386 219.67 120.929 218.941 121.316 218.128C121.524 217.328 121.876 213.936 121.972 212.976H131.268C130.741 215.776 130.073 218.547 129.268 221.28C126.996 222.4 116.468 227.424 113.94 226.864ZM126.74 228.912C125.364 228.912 116.836 229.104 115.54 228.912C115.483 228.6 115.483 228.28 115.54 227.968C118.724 227.237 121.819 226.164 124.772 224.768H129.572C128.612 226.048 127.7 227.456 126.788 228.912H126.74ZM138.644 212.192C135.447 215.909 132.527 219.856 129.908 224L125.988 224.08C128.116 223.088 129.7 222.256 129.908 222.16C130.081 222.049 130.215 221.887 130.292 221.696C131.041 218.801 131.608 215.862 131.988 212.896C134.004 212.896 134.724 212.896 134.916 212.384C135.428 211.264 144.772 193.76 146.276 190.992C146.788 190.992 145.78 190.128 153.428 200.08C161.044 198.064 167.94 197.952 178.372 202.112L181.924 204.928C175.204 201.904 167.924 199.472 160.484 199.888C157.345 200.053 154.234 200.557 151.204 201.392C146.372 203.984 142.468 208.128 138.692 212.192H138.644ZM143.78 245.424C149.508 239.152 154.452 233.248 158.532 229.12H167.044C160.996 235.92 154.948 242.752 149.668 248.72C147.663 247.727 145.714 246.627 143.828 245.424H143.78ZM135.62 273.6C134.007 273.65 132.437 273.077 131.236 272C132.996 269.168 151.924 247.872 168.596 229.024H174.996C140.916 267.776 136.052 273.328 135.62 273.6ZM156.676 251.472C162.452 244.832 169.172 237.152 176.244 229.072C178.516 229.072 180.1 229.168 180.724 229.264C185.748 238.544 196.612 242.064 207.044 243.44L215.604 248.24C210.826 250.889 205.649 252.743 200.276 253.728C186.452 256.432 167.62 255.12 156.676 251.472ZM215.876 248.688L205.172 261.92L193.7 255.52C201.483 254.792 209.033 252.467 215.876 248.688ZM184.5 256.128C187.268 256.128 189.844 255.936 192.26 255.696L204.5 262.672L202.26 265.44L184.5 256.128ZM227.7 275.872C227.394 276.645 226.991 277.376 226.5 278.048C225.124 277.36 217.06 273.152 208.084 268.448L210.196 265.888L227.7 275.872ZM187.7 290.88C186.589 290.591 185.581 289.998 184.788 289.168C184.884 289.024 199.188 271.28 217.172 249.04L220.884 251.104C197.716 279.12 188.788 289.968 187.7 290.88ZM277.652 277.072C277.147 278.185 276.553 279.255 275.876 280.272C271.076 277.936 184.676 229.072 181.156 228.256C179.396 227.808 160.692 228.256 158.644 228.256L162.356 224.448C164.292 224.448 182.404 224.448 183.876 224.832C188.676 226.24 277.06 277.072 277.636 277.072H277.652ZM225.028 246.096L221.3 244.048C225.268 241.12 229.028 235.68 231.428 231.408C232.907 231.98 234.448 232.377 236.02 232.592C236.244 232.608 236.708 232 225.012 246.096H225.028ZM254.9 220.64C253.337 224.021 250.81 226.865 247.636 228.816C238.036 234.672 228.964 230.416 220.436 222.896C217.427 219.925 214.847 216.548 212.772 212.864L217.748 204.944C232.644 213.76 231.108 212.592 234.9 214.784C235.204 214.944 235.54 215.12 236.34 215.584L238.02 216.592C239.172 217.264 238.868 217.424 239.22 217.44C239.844 217.44 239.22 216.224 238.244 215.392C236.999 214.494 235.63 213.782 234.18 213.28C237.132 208.241 240.369 203.374 243.876 198.704C243.916 198.653 243.935 198.588 243.927 198.524C243.92 198.459 243.887 198.4 243.836 198.36C243.785 198.32 243.72 198.301 243.656 198.309C243.591 198.316 243.532 198.349 243.492 198.4C239.844 203.027 236.467 207.862 233.38 212.88C231.412 211.904 221.252 205.728 219.364 204.576C220.852 202.16 228.148 199.024 230.42 193.216C234.084 192.32 237.844 187.904 240.02 184.848L246.1 179.504C249.107 181.596 251.517 184.436 253.092 187.744C255.837 193.78 257.318 200.314 257.444 206.944C257.714 211.648 256.841 216.347 254.9 220.64ZM288.02 161.296C289.268 161.296 292.004 162.144 292.452 163.008C292.564 163.184 289.908 167.024 258.484 205.424C258.369 203.225 258.091 201.038 257.652 198.88C274.42 178.144 287.556 161.872 288.036 161.296H288.02ZM283.22 166.352C277.924 172.752 268.468 184.24 257.412 197.696C256.578 194.17 255.399 190.735 253.892 187.44C252.244 184.087 249.758 181.215 246.676 179.104C246.742 179.007 246.768 178.889 246.75 178.773C246.733 178.657 246.672 178.553 246.58 178.48C245.3 177.632 243.028 176.48 241.78 175.792C241.746 175.773 241.708 175.764 241.669 175.763C241.631 175.762 241.593 175.771 241.558 175.788C241.523 175.805 241.494 175.831 241.471 175.862C241.448 175.893 241.433 175.93 241.428 175.968L240.148 175.264L241.188 172.064C241.566 172.328 242.006 172.492 242.465 172.539C242.924 172.587 243.387 172.517 243.812 172.336C244.006 172.196 244.178 172.029 244.324 171.84C244.774 172.117 245.286 172.278 245.814 172.308C246.341 172.339 246.868 172.239 247.348 172.016C248.022 171.588 248.573 170.993 248.948 170.288C249.3 169.776 249.364 169.68 250.292 169.696C251.19 169.836 252.107 169.624 252.852 169.104C253.681 168.246 254.14 167.097 254.132 165.904C254.952 165.568 255.647 164.986 256.123 164.238C256.599 163.49 256.831 162.613 256.788 161.728C262.74 162.608 277.3 164.8 283.22 166.4V166.352ZM259.22 102.16C259.556 101.376 260.308 101.6 261.076 101.984C261.844 102.368 261.86 103.072 261.988 103.872C262.692 107.984 267.364 102.048 268.708 104.08C269.326 105.107 269.537 106.329 269.3 107.504C268.988 108.059 268.641 108.594 268.26 109.104C268.191 109.187 268.153 109.292 268.153 109.4C268.153 109.508 268.191 109.613 268.26 109.696C269.508 110.944 272.964 108.832 274.276 110.16C274.803 110.792 275.137 111.564 275.236 112.381C275.336 113.199 275.197 114.028 274.836 114.768C274.372 115.936 273.332 116.96 273.588 117.504C273.844 118.048 274.148 117.904 274.516 117.504C274.884 117.104 278.612 116.016 279.316 116.448C279.514 116.609 279.676 116.811 279.789 117.04C279.902 117.269 279.965 117.52 279.972 117.776C280.116 119.184 279.364 119.504 278.932 120.128C278.5 120.752 278.756 121.232 279.364 121.232C281.38 121.232 283.828 118.4 285.764 119.392C286.26 119.648 285.764 121.168 285.348 121.776C284.932 122.384 284.58 122.608 284.74 123.072C285.06 124 286.852 123.072 287.716 122.608C289.492 121.664 291.14 120.672 292.26 122.352C292.866 123.366 293.077 124.568 292.852 125.728C292.772 126.048 292.004 126.944 291.94 127.328C291.812 128.016 292.628 128.112 293.3 127.984C294.692 127.728 297.332 126.384 297.38 127.216C297.38 128.384 295.492 131.04 295.492 131.696C295.508 131.846 295.579 131.985 295.691 132.085C295.803 132.186 295.949 132.241 296.1 132.24C296.26 132.24 299.924 131.936 300.148 132C302.66 132.624 300.052 135.808 301.236 136.992C302.004 137.776 303.38 136.992 304.548 136.624C304.676 136.624 305.076 136.496 305.14 136.624C305.572 137.504 303.364 138.224 302.468 138.72C301.572 139.216 301.604 140.144 302.18 140.32C302.456 140.36 302.736 140.36 303.012 140.32C304.612 140.848 304.836 142.672 304.788 144.352C302.532 144.24 271.812 143.2 271.7 143.2C268.327 130.418 264.099 117.878 259.044 105.664C258.904 104.494 258.963 103.31 259.22 102.16ZM273.508 154.96C270.198 155.334 266.912 155.9 263.668 156.656C262.74 156.896 261.924 157.168 261.252 157.376C261.188 157.389 261.132 157.426 261.096 157.48C261.06 157.534 261.047 157.6 261.06 157.664C261.073 157.728 261.11 157.784 261.164 157.82C261.218 157.856 261.284 157.869 261.348 157.856L262.852 157.744C265.522 157.496 268.169 157.046 270.772 156.4C271.737 156.128 272.687 155.808 273.62 155.44C274.281 158.16 274.911 160.949 275.508 163.808C272.868 163.36 259.924 161.424 256.548 160.96C256.527 160.671 256.415 160.397 256.228 160.176C256.604 159.439 256.894 158.66 257.092 157.856C257.673 158.456 258.317 158.993 259.012 159.456C259.732 159.76 260.804 159.184 260.34 157.52C259.521 155.497 258.445 153.588 257.14 151.84C257.22 150.736 257.412 149.648 257.54 148.496C257.772 146.195 257.28 143.879 256.133 141.871C254.986 139.863 253.24 138.264 251.14 137.296C249.211 136.572 247.141 136.303 245.092 136.512C244.708 132.656 244.324 128.688 243.924 124.816C244.576 124.823 245.228 124.791 245.876 124.72C249.108 124.319 252.292 123.596 255.38 122.56C255.443 122.547 255.499 122.51 255.535 122.456C255.571 122.402 255.585 122.336 255.572 122.272C255.559 122.208 255.522 122.152 255.468 122.116C255.414 122.08 255.347 122.067 255.284 122.08C251.418 122.395 247.595 123.108 243.876 124.208C241.22 97.7759 240.18 90.2559 239.652 80.1119C240.266 78.517 240.675 76.8502 240.868 75.1519C243.319 78.7507 245.46 82.551 247.268 86.5119C247.38 86.7359 247.492 86.7039 248.692 87.0399C259.86 107.2 268.036 131.984 273.508 154.992V154.96ZM247.908 85.9199C245.971 81.7972 243.635 77.8744 240.932 74.2079C240.973 73.577 240.941 72.9434 240.836 72.3199C240.811 72.2425 240.768 72.1726 240.709 72.1166C240.65 72.0607 240.578 72.0205 240.5 71.9999C245.188 71.1039 257.396 68.9279 262.196 69.3279C283.348 71.0559 297.828 76.6719 309.028 94.4799C312.596 100.128 311.332 110.064 308.66 115.088C308.407 115.585 308.083 116.043 307.7 116.448C305.94 114.848 296.996 105.248 295.332 103.552L294.644 97.7439C294.63 97.654 294.597 97.5682 294.546 97.4926C294.495 97.4169 294.429 97.3533 294.351 97.306C294.274 97.2588 294.186 97.2291 294.096 97.219C294.006 97.209 293.914 97.2189 293.828 97.2479L289.028 99.1039L271.652 91.9839C269.428 85.9999 269.588 86.1439 269.188 86.0639C268.788 85.9839 268.98 85.9359 264.644 90.3519L247.908 85.9199Z" fill="#321B37"/>
</svg>
