<svg width="167" height="47" viewBox="0 0 167 47" fill="none" xmlns="http://www.w3.org/2000/svg">
<path d="M21.9419 7.30795C21.9419 11.3428 25.2199 14.6212 29.2495 14.6212C33.2792 14.6212 36.558 11.3428 36.558 7.30795C36.558 3.2783 33.2792 -7.43866e-05 29.2495 -7.43866e-05C25.2199 -7.43866e-05 21.9419 3.2783 21.9419 7.30795ZM23.5181 7.30795C23.5181 4.15031 26.087 1.57613 29.2495 1.57613C32.4076 1.57613 34.9814 4.15031 34.9814 7.30795C34.9814 10.4708 32.4076 13.045 29.2495 13.045C26.087 13.045 23.5181 10.4708 23.5181 7.30795Z" fill="url(#paint0_linear_416_7714)"/>
<path d="M0.769043 7.30795C0.769043 11.3428 4.04741 14.6212 8.07707 14.6212C12.1064 14.6212 15.3851 11.3428 15.3851 7.30795C15.3851 3.2783 12.1064 -7.43866e-05 8.07707 -7.43866e-05C4.04741 -7.43866e-05 0.769043 3.2783 0.769043 7.30795ZM2.34487 7.30795C2.34487 4.15031 4.91943 1.57613 8.07707 1.57613C11.2396 1.57613 13.8089 4.15031 13.8089 7.30795C13.8089 10.4708 11.2396 13.045 8.07707 13.045C4.91943 13.045 2.34487 10.4708 2.34487 7.30795Z" fill="url(#paint1_linear_416_7714)"/>
<path d="M10.9828 33.7294C10.9768 33.7294 10.9768 33.7346 10.9768 33.7346C11.0033 33.7346 11.0299 33.7294 11.056 33.7294H10.9828Z" fill="url(#paint2_linear_416_7714)"/>
<path d="M23.807 19.5175C23.3708 19.8958 22.9612 20.2535 22.5567 20.5738C18.9838 21.6507 17.9859 21.3513 14.6025 19.46C14.2504 19.2656 13.9196 19.0765 13.6041 18.8978C10.6094 17.2057 8.95996 16.2762 5.63412 16.2762C1.81938 16.2762 0.264856 19.4443 0.464451 22.1396C0.611718 24.0832 2.68168 28.2545 9.53259 28.2545C15.5376 28.2545 20.2236 24.4771 22.7459 22.4442C22.9455 22.2812 24.3587 21.1304 24.8364 20.7155C26.5128 19.2708 28.4093 17.6371 30.0064 17.6371C32.0607 17.6371 34.4614 19.1658 34.4614 23.484C34.4614 25.0236 34.1359 26.5262 33.5947 27.9917C33.5524 28.1076 33.5105 28.2283 33.453 28.3595C33.0168 29.5051 32.1919 31.2914 30.7259 33.3879C30.2116 34.1706 29.6756 34.9424 29.1344 35.699C26.4335 39.4872 19.2047 45.3662 17.9279 45.4238C16.9243 45.4238 13.9196 43.1598 10.6147 39.9129L10.0839 39.3926C8.75999 38.0904 5.99705 35.3891 5.90697 34.633C5.90697 34.2125 5.98621 34.0809 6.06471 34.0073C6.20151 33.8817 6.57453 33.6978 7.60951 33.6978C7.83527 33.6978 8.09318 33.7079 8.38211 33.7239C8.41313 33.7239 10.4782 33.7292 10.9828 33.7292H11.0931C12.7582 33.6238 14.8705 33.3195 17.14 32.5312V43.4084C17.2764 43.4925 17.4028 43.5609 17.5074 43.6185C17.744 43.7343 18.0225 43.7287 18.2482 43.5975C18.385 43.5239 18.5428 43.4293 18.7162 43.3191V31.9167C19.7037 31.4854 20.7077 30.9603 21.7053 30.3196C22.5459 29.7784 23.2714 29.2686 23.9068 28.7957C23.9225 28.7853 23.9382 28.7748 23.9487 28.7639C24.8472 28.0923 25.5776 27.4823 26.2186 26.9519C26.5232 26.6944 26.8013 26.4682 27.0484 26.269C27.0592 26.2634 27.0644 26.2529 27.0749 26.2529C27.6681 25.8538 28.2938 25.4759 28.9191 25.1653H28.924C29.2391 25.0079 29.5549 24.8711 29.8644 24.7504C30.4422 24.5351 31.0044 24.3927 31.5355 24.3564C31.688 24.3456 31.8345 24.3403 31.9818 24.3512C32.1709 24.3616 32.3388 24.2248 32.3705 24.0361L32.507 23.2265C32.5391 23.0112 32.3915 22.8011 32.1709 22.7854C30.9625 22.6961 29.6596 23.0744 28.4194 23.6627C28.2467 23.7419 28.0785 23.8309 27.9103 23.915C26.9486 24.4196 26.0605 25.0393 25.2259 25.7274L25.215 25.7379C24.5736 26.269 23.8436 26.8783 22.9399 27.5455C22.3302 28.0026 21.6429 28.4859 20.8542 28.9905C18.3062 30.6242 15.7264 31.4544 13.5252 31.8536C12.6319 32.0113 11.7289 32.0846 10.8199 32.1059C9.89515 32.132 8.67103 32.1634 8.49237 32.153C6.72143 32.0322 5.64458 32.2475 4.99309 32.8572C4.39954 33.4088 4.33152 34.1336 4.33152 34.633C4.33152 35.8731 6.17534 37.7693 8.98575 40.5169L9.51165 41.0316C11.7756 43.2645 15.8841 47 17.9279 47C20.1661 47 28.031 39.96 30.4165 36.6188C33.2586 32.6258 36.0376 28.3285 36.0376 23.484C36.0376 18.357 33.0063 16.0605 30.0064 16.0605C27.8206 16.0605 25.6875 17.8998 23.807 19.5175ZM2.04066 22.1396C1.94049 20.8523 2.30304 17.8524 5.63412 17.8524C8.54993 17.8524 9.97924 18.6612 12.8263 20.2688C13.147 20.4475 13.483 20.6366 13.8355 20.8366C16.3312 22.2289 17.812 22.8692 19.7931 22.7432C17.2869 24.5825 13.7196 26.6787 9.53259 26.6787C3.92635 26.6787 2.15616 23.5633 2.04066 22.1396Z" fill="url(#paint3_linear_416_7714)"/>
<path d="M23.9067 28.7957L23.9116 28.8009C23.9224 28.7901 23.9329 28.78 23.9486 28.7639C23.9381 28.7747 23.9224 28.7852 23.9067 28.7957Z" fill="url(#paint4_linear_416_7714)"/>
<path d="M46.8696 32.6587H46.8442L45.4552 30.5779V33.7494H44.6875V29.3093H45.5188L46.8696 31.4092L48.2204 29.3093H49.0517V33.7494H48.2712V30.5656L46.8696 32.6587Z" fill="white"/>
<path d="M54.7595 30.0078H52.2481V31.1624H54.4747V31.8598H52.2481V33.0529H54.7913V33.75H51.4673V29.3099H54.7595V30.0078Z" fill="white"/>
<path d="M58.9124 30.2107L58.1514 31.9869H59.6798L58.9124 30.2107ZM61.2399 33.75H60.4154L59.9654 32.678H57.8655L57.4095 33.75H56.6096L58.5633 29.2785H59.2862L61.2399 33.75Z" fill="white"/>
<path d="M66.3769 29.3093H67.1446V33.7494H66.4909L64.0423 30.5906V33.7494H63.2749V29.3093H63.9982L66.3769 32.3795V29.3093Z" fill="white"/>
<path d="M70.3853 33.7494H69.6052V29.3093H70.3853V33.7494Z" fill="white"/>
<path d="M75.9435 29.3093H76.7109V33.7494H76.0579L73.6093 30.5906V33.7494H72.8416V29.3093H73.5652L75.9435 32.3795V29.3093Z" fill="white"/>
<path d="M81.2329 33.826C79.8435 33.826 78.9304 32.837 78.9304 31.5363C78.9304 30.2864 79.882 29.2339 81.2202 29.2339C81.9939 29.2339 82.4701 29.4495 82.9264 29.8364L82.4319 30.4266C82.0896 30.1347 81.7532 29.9508 81.1884 29.9508C80.3698 29.9508 79.7486 30.6613 79.7486 31.524C79.7486 32.4431 80.3515 33.1155 81.2583 33.1155C81.6765 33.1155 82.0574 32.9821 82.3299 32.7787V31.949H81.1947V31.2694H83.0849V33.1342C82.6469 33.5091 82.0197 33.826 81.2329 33.826Z" fill="white"/>
<path d="M88.6778 30.0205H86.1534V31.2315H88.3926V31.9428H86.1534V33.75H85.3733V29.3099H88.6778V30.0205Z" fill="white"/>
<path d="M94.5372 31.8272C94.5372 33.1538 93.7885 33.8195 92.628 33.8195C91.4738 33.8195 90.7378 33.1538 90.7378 31.8657V29.3095H91.5182V31.8343C91.5182 32.6589 91.9432 33.1029 92.641 33.1029C93.3318 33.1029 93.7571 32.6839 93.7571 31.8657V29.3095H94.5372V31.8272Z" fill="white"/>
<path d="M96.8831 29.3093H97.6635V33.0388H99.997V33.7494H96.8831V29.3093Z" fill="white"/>
<path d="M107.318 33.826C106.024 33.826 105.06 32.8169 105.06 31.5363C105.06 30.2677 106.005 29.2339 107.349 29.2339C108.167 29.2339 108.662 29.5194 109.087 29.925L108.587 30.5025C108.231 30.1728 107.85 29.9508 107.343 29.9508C106.493 29.9508 105.878 30.6479 105.878 31.524C105.878 32.399 106.493 33.1095 107.343 33.1095C107.888 33.1095 108.238 32.8875 108.618 32.532L109.119 33.0393C108.656 33.5214 108.149 33.826 107.318 33.826Z" fill="white"/>
<path d="M113.202 29.9503C112.321 29.9503 111.706 30.6541 111.706 31.5235C111.706 32.3921 112.334 33.109 113.215 33.109C114.097 33.109 114.712 32.4045 114.712 31.5358C114.712 30.6668 114.083 29.9503 113.202 29.9503ZM113.202 33.8256C111.84 33.8256 110.888 32.7921 110.888 31.5358C110.888 30.2799 111.852 29.2334 113.215 29.2334C114.579 29.2334 115.53 30.2676 115.53 31.5235C115.53 32.7782 114.566 33.8256 113.202 33.8256Z" fill="white"/>
<path d="M120.851 29.3093H121.619V33.7494H120.966L118.517 30.5906V33.7494H117.749V29.3093H118.473L120.851 32.3795V29.3093Z" fill="white"/>
<path d="M127.136 29.3093H127.904V33.7494H127.25L124.802 30.5906V33.7494H124.035V29.3093H124.758L127.136 32.3795V29.3093Z" fill="white"/>
<path d="M133.611 30.0078H131.1V31.1624H133.326V31.8598H131.1V33.0529H133.643V33.75H130.319V29.3099H133.611V30.0078Z" fill="white"/>
<path d="M137.904 33.826C136.609 33.826 135.645 32.8169 135.645 31.5363C135.645 30.2677 136.59 29.2339 137.935 29.2339C138.754 29.2339 139.248 29.5194 139.673 29.925L139.172 30.5025C138.816 30.1728 138.436 29.9508 137.929 29.9508C137.079 29.9508 136.463 30.6479 136.463 31.524C136.463 32.399 137.079 33.1095 137.929 33.1095C138.474 33.1095 138.823 32.8875 139.204 32.532L139.705 33.0393C139.242 33.5214 138.735 33.826 137.904 33.826Z" fill="white"/>
<path d="M143.674 33.7494H142.888V30.033H141.479V29.3093H145.082V30.033H143.674V33.7494Z" fill="white"/>
<path d="M148.005 33.7494H147.224V29.3093H148.005V33.7494Z" fill="white"/>
<path d="M152.581 29.9503C151.699 29.9503 151.084 30.6541 151.084 31.5235C151.084 32.3921 151.712 33.109 152.593 33.109C153.476 33.109 154.09 32.4045 154.09 31.5358C154.09 30.6668 153.462 29.9503 152.581 29.9503ZM152.581 33.8256C151.218 33.8256 150.266 32.7921 150.266 31.5358C150.266 30.2799 151.23 29.2334 152.593 29.2334C153.957 29.2334 154.908 30.2676 154.908 31.5235C154.908 32.7782 153.944 33.8256 152.581 33.8256Z" fill="white"/>
<path d="M160.23 29.3093H160.997V33.7494H160.345L157.895 30.5906V33.7494H157.127V29.3093H157.851L160.23 32.3795V29.3093Z" fill="white"/>
<path d="M165.126 31.1748C166.065 31.4024 166.553 31.7384 166.553 32.4815C166.553 33.3176 165.899 33.8129 164.967 33.8129C164.288 33.8129 163.648 33.5781 163.115 33.1031L163.584 32.5439C164.009 32.9117 164.434 33.1218 164.986 33.1218C165.467 33.1218 165.772 32.8994 165.772 32.5577C165.772 32.2333 165.595 32.0629 164.77 31.8715C163.825 31.6439 163.292 31.3646 163.292 30.5405C163.292 29.7664 163.926 29.2461 164.808 29.2461C165.455 29.2461 165.969 29.4427 166.42 29.8045L166.001 30.3943C165.601 30.0964 165.202 29.9376 164.796 29.9376C164.339 29.9376 164.073 30.1723 164.073 30.4706C164.073 30.8193 164.276 30.9718 165.126 31.1748Z" fill="white"/>
<path d="M50.7363 25.6219H48.5684V15.3776H44.6875V13.3842H54.6172V15.3776H50.7363V25.6219Z" fill="white"/>
<path d="M65.668 15.3416H62.5384V19.4505H65.6856C67.2236 19.4505 68.2025 18.6461 68.2025 17.3876C68.2025 16.0416 67.2591 15.3416 65.668 15.3416ZM68.2377 25.6215L65.2307 21.3563H62.5384V25.6215H60.3884V13.3841H65.8429C68.6574 13.3841 70.388 14.8695 70.388 17.265C70.388 19.2927 69.1818 20.5165 67.4685 20.9889L70.773 25.6215H68.2377Z" fill="white"/>
<path d="M86.8058 20.3246C86.8058 23.9779 84.7433 25.8142 81.5438 25.8142C78.3622 25.8142 76.3337 23.9779 76.3337 20.4296V13.384H78.4841V20.3422C78.4841 22.6147 79.6562 23.8384 81.5789 23.8384C83.4844 23.8384 84.6554 22.6842 84.6554 20.4296V13.384H86.8058V20.3246Z" fill="white"/>
<path d="M102.332 15.3073H95.4094V18.4896H101.546V20.4123H95.4094V23.6993H102.419V25.6219H93.259V13.3842H102.332V15.3073Z" fill="white"/>
<path d="M113.033 15.3416H110.622V23.664H113.033C115.603 23.664 117.282 21.9327 117.282 19.5203C117.282 17.1073 115.603 15.3416 113.033 15.3416ZM113.033 25.6215H108.471V13.3841H113.033C116.88 13.3841 119.537 16.0237 119.537 19.4852C119.537 22.9467 116.88 25.6215 113.033 25.6215Z" fill="white"/>
<path d="M131.479 15.15C129.049 15.15 127.353 17.0902 127.353 19.4854C127.353 21.8809 129.084 23.8559 131.515 23.8559C133.944 23.8559 135.64 21.916 135.64 19.5205C135.64 17.1257 133.909 15.15 131.479 15.15ZM131.479 25.8317C127.72 25.8317 125.098 22.9816 125.098 19.5205C125.098 16.0586 127.756 13.1742 131.515 13.1742C135.273 13.1742 137.895 16.0238 137.895 19.4854C137.895 22.9469 135.238 25.8317 131.479 25.8317Z" fill="white"/>
<path d="M148.509 25.6219H146.341V15.3776H142.459V13.3842H152.39V15.3776H148.509V25.6219Z" fill="white"/>
<path d="M162.619 18.5241C165.207 19.1535 166.553 20.0805 166.553 22.1254C166.553 24.4331 164.752 25.7966 162.182 25.7966C160.312 25.7966 158.546 25.15 157.077 23.8388L158.371 22.3003C159.543 23.3144 160.714 23.8911 162.235 23.8911C163.563 23.8911 164.403 23.2796 164.403 22.3355C164.403 21.4437 163.913 20.9716 161.64 20.4472C159.035 19.8174 157.567 19.0485 157.567 16.776C157.567 14.6428 159.315 13.2094 161.745 13.2094C163.529 13.2094 164.944 13.7514 166.186 14.7479L165.031 16.3738C163.93 15.5522 162.829 15.1153 161.71 15.1153C160.452 15.1153 159.717 15.7619 159.717 16.5835C159.717 17.5448 160.277 17.9646 162.619 18.5241Z" fill="white"/>
<defs>
<linearGradient id="paint0_linear_416_7714" x1="25.2886" y1="-7.35361e-05" x2="33.2112" y2="14.6212" gradientUnits="userSpaceOnUse">
<stop stop-color="#9D02BF"/>
<stop offset="1" stop-color="#8608A1"/>
</linearGradient>
<linearGradient id="paint1_linear_416_7714" x1="6.13181" y1="-7.41846e-05" x2="10.0223" y2="14.6212" gradientUnits="userSpaceOnUse">
<stop stop-color="#9D02BF"/>
<stop offset="1" stop-color="#81089C"/>
</linearGradient>
<linearGradient id="paint2_linear_416_7714" x1="-8.89642" y1="14.7219" x2="30.4431" y2="52.403" gradientUnits="userSpaceOnUse">
<stop/>
<stop offset="1"/>
</linearGradient>
<linearGradient id="paint3_linear_416_7714" x1="18.2426" y1="16.0605" x2="18.2426" y2="47" gradientUnits="userSpaceOnUse">
<stop stop-color="#9D02BF"/>
<stop offset="1" stop-color="#491454"/>
</linearGradient>
<linearGradient id="paint4_linear_416_7714" x1="-0.142602" y1="5.76295" x2="39.074" y2="43.264" gradientUnits="userSpaceOnUse">
<stop/>
<stop offset="1"/>
</linearGradient>
</defs>
</svg>
