<svg width="37" height="47" viewBox="0 0 37 47" fill="none" xmlns="http://www.w3.org/2000/svg">
<path d="M21.9419 7.30795C21.9419 11.3428 25.2199 14.6212 29.2495 14.6212C33.2792 14.6212 36.558 11.3428 36.558 7.30795C36.558 3.2783 33.2792 -7.43866e-05 29.2495 -7.43866e-05C25.2199 -7.43866e-05 21.9419 3.2783 21.9419 7.30795ZM23.5181 7.30795C23.5181 4.15031 26.087 1.57613 29.2495 1.57613C32.4076 1.57613 34.9814 4.15031 34.9814 7.30795C34.9814 10.4708 32.4076 13.045 29.2495 13.045C26.087 13.045 23.5181 10.4708 23.5181 7.30795Z" fill="url(#paint0_linear_416_7715)"/>
<path d="M0.769043 7.30795C0.769043 11.3428 4.04741 14.6212 8.07707 14.6212C12.1064 14.6212 15.3851 11.3428 15.3851 7.30795C15.3851 3.2783 12.1064 -7.43866e-05 8.07707 -7.43866e-05C4.04741 -7.43866e-05 0.769043 3.2783 0.769043 7.30795ZM2.34487 7.30795C2.34487 4.15031 4.91943 1.57613 8.07707 1.57613C11.2396 1.57613 13.8089 4.15031 13.8089 7.30795C13.8089 10.4708 11.2396 13.045 8.07707 13.045C4.91943 13.045 2.34487 10.4708 2.34487 7.30795Z" fill="url(#paint1_linear_416_7715)"/>
<path d="M10.9828 33.7294C10.9768 33.7294 10.9768 33.7346 10.9768 33.7346C11.0033 33.7346 11.0299 33.7294 11.056 33.7294H10.9828Z" fill="url(#paint2_linear_416_7715)"/>
<path d="M23.807 19.5175C23.3708 19.8958 22.9612 20.2535 22.5567 20.5738C18.9838 21.6507 17.9859 21.3513 14.6025 19.46C14.2504 19.2656 13.9196 19.0765 13.6041 18.8978C10.6094 17.2057 8.95996 16.2762 5.63412 16.2762C1.81938 16.2762 0.264856 19.4443 0.464451 22.1396C0.611718 24.0832 2.68168 28.2545 9.53259 28.2545C15.5376 28.2545 20.2236 24.4771 22.7459 22.4442C22.9455 22.2812 24.3587 21.1304 24.8364 20.7155C26.5128 19.2708 28.4093 17.6371 30.0064 17.6371C32.0607 17.6371 34.4614 19.1658 34.4614 23.484C34.4614 25.0236 34.1359 26.5262 33.5947 27.9917C33.5524 28.1076 33.5105 28.2283 33.453 28.3595C33.0168 29.5051 32.1919 31.2914 30.7259 33.3879C30.2116 34.1706 29.6756 34.9424 29.1344 35.699C26.4335 39.4872 19.2047 45.3662 17.9279 45.4238C16.9243 45.4238 13.9196 43.1598 10.6147 39.9129L10.0839 39.3926C8.75999 38.0904 5.99705 35.3891 5.90697 34.633C5.90697 34.2125 5.98621 34.0809 6.06471 34.0073C6.20151 33.8817 6.57453 33.6978 7.60951 33.6978C7.83527 33.6978 8.09318 33.7079 8.38211 33.7239C8.41313 33.7239 10.4782 33.7292 10.9828 33.7292H11.0931C12.7582 33.6238 14.8705 33.3195 17.14 32.5312V43.4084C17.2764 43.4925 17.4028 43.5609 17.5074 43.6185C17.744 43.7343 18.0225 43.7287 18.2482 43.5975C18.385 43.5239 18.5428 43.4293 18.7162 43.3191V31.9167C19.7037 31.4854 20.7077 30.9603 21.7053 30.3196C22.5459 29.7784 23.2714 29.2686 23.9068 28.7957C23.9225 28.7853 23.9382 28.7748 23.9487 28.7639C24.8472 28.0923 25.5776 27.4823 26.2186 26.9519C26.5232 26.6944 26.8013 26.4682 27.0484 26.269C27.0592 26.2634 27.0644 26.2529 27.0749 26.2529C27.6681 25.8538 28.2938 25.4759 28.9191 25.1653H28.924C29.2391 25.0079 29.5549 24.8711 29.8644 24.7504C30.4422 24.5351 31.0044 24.3927 31.5355 24.3564C31.688 24.3456 31.8345 24.3403 31.9818 24.3512C32.1709 24.3616 32.3388 24.2248 32.3705 24.0361L32.507 23.2265C32.5391 23.0112 32.3915 22.8011 32.1709 22.7854C30.9625 22.6961 29.6596 23.0744 28.4194 23.6627C28.2467 23.7419 28.0785 23.8309 27.9103 23.915C26.9486 24.4196 26.0605 25.0393 25.2259 25.7274L25.215 25.7379C24.5736 26.269 23.8436 26.8783 22.9399 27.5455C22.3302 28.0026 21.6429 28.4859 20.8542 28.9905C18.3062 30.6242 15.7264 31.4544 13.5252 31.8536C12.6319 32.0113 11.7289 32.0846 10.8199 32.1059C9.89515 32.132 8.67103 32.1634 8.49237 32.153C6.72143 32.0322 5.64458 32.2475 4.99309 32.8572C4.39954 33.4088 4.33152 34.1336 4.33152 34.633C4.33152 35.8731 6.17534 37.7693 8.98575 40.5169L9.51165 41.0316C11.7756 43.2645 15.8841 47 17.9279 47C20.1661 47 28.031 39.96 30.4165 36.6188C33.2586 32.6258 36.0376 28.3285 36.0376 23.484C36.0376 18.357 33.0063 16.0605 30.0064 16.0605C27.8206 16.0605 25.6875 17.8998 23.807 19.5175ZM2.04066 22.1396C1.94049 20.8523 2.30304 17.8524 5.63412 17.8524C8.54993 17.8524 9.97924 18.6612 12.8263 20.2688C13.147 20.4475 13.483 20.6366 13.8355 20.8366C16.3312 22.2289 17.812 22.8692 19.7931 22.7432C17.2869 24.5825 13.7196 26.6787 9.53259 26.6787C3.92635 26.6787 2.15616 23.5633 2.04066 22.1396Z" fill="url(#paint3_linear_416_7715)"/>
<path d="M23.9067 28.7957L23.9116 28.8009C23.9224 28.7901 23.9329 28.78 23.9486 28.7639C23.9381 28.7747 23.9224 28.7852 23.9067 28.7957Z" fill="url(#paint4_linear_416_7715)"/>
<defs>
<linearGradient id="paint0_linear_416_7715" x1="25.2886" y1="-7.35361e-05" x2="33.2112" y2="14.6212" gradientUnits="userSpaceOnUse">
<stop stop-color="#9D02BF"/>
<stop offset="1" stop-color="#8608A1"/>
</linearGradient>
<linearGradient id="paint1_linear_416_7715" x1="6.13181" y1="-7.41846e-05" x2="10.0223" y2="14.6212" gradientUnits="userSpaceOnUse">
<stop stop-color="#9D02BF"/>
<stop offset="1" stop-color="#81089C"/>
</linearGradient>
<linearGradient id="paint2_linear_416_7715" x1="-8.89642" y1="14.7219" x2="30.4431" y2="52.403" gradientUnits="userSpaceOnUse">
<stop/>
<stop offset="1"/>
</linearGradient>
<linearGradient id="paint3_linear_416_7715" x1="18.2426" y1="16.0605" x2="18.2426" y2="47" gradientUnits="userSpaceOnUse">
<stop stop-color="#9D02BF"/>
<stop offset="1" stop-color="#491454"/>
</linearGradient>
<linearGradient id="paint4_linear_416_7715" x1="-0.142602" y1="5.76295" x2="39.074" y2="43.264" gradientUnits="userSpaceOnUse">
<stop/>
<stop offset="1"/>
</linearGradient>
</defs>
</svg>
